<svg id="Layer_1" data-name="Layer 1" xmlns="http://www.w3.org/2000/svg" xmlns:xlink="http://www.w3.org/1999/xlink" viewBox="0 0 278.55 196.37"><defs><style>.cls-1{fill:none;}.cls-2{clip-path:url(#clip-path);}.cls-3{fill:#f0f;}.cls-4{fill:#909;}.cls-5{fill:#606;}</style><clipPath id="clip-path"><polygon class="cls-1" points="0 73.06 126.54 0 278.56 87.77 152.01 160.84 0 73.06"/></clipPath></defs><g class="cls-2"><polygon points="3.81 73.06 126.54 2.2 274.74 87.77 152.01 158.64 3.81 73.06"/><path class="cls-3" d="M7.62,73.06,126.54,4.4,270.93,87.77,152,156.44ZM152,160.84,278.55,87.77,126.54,0,0,73.06Z"/><g class="cls-2"><path class="cls-3" d="M152.76,95.31l-16.91-2.62c-6.62-.91-10.87-1.54-15.18-2.28l-.15.08a71,71,0,0,1,4.39,8.6l4.82,9.51-7.19,4.16L112.82,90l-38.2-5.61,7.26-4.19,17.78,2.86c5,.79,8.77,1.42,12.66,2.16l.22-.12a61.33,61.33,0,0,1-3.82-7.27L104,67.47l7.2-4.15L120,85.46l40,5.65Z"/><path class="cls-3" d="M153.55,76.07a24.12,24.12,0,0,0,24,.08c4.53-2.61,6.47-4.65,7.84-6.6l5.61,2c-1.22,1.87-3.88,4.74-9.43,7.94a35,35,0,0,1-34.68-.25c-10.5-6.07-12.59-14.42-2.44-20.28,11.36-6.56,24.39-2.53,30.79,1.17A28.3,28.3,0,0,1,178,61.94Zm14-13.34c-4-2.36-11.94-5-19.07-.87-6.4,3.7-3.31,8.73.58,11.55Z"/><path class="cls-3" d="M35.33,67.78l-7.79,4.51L32,75.77a12.58,12.58,0,0,1,1.54-1,15.59,15.59,0,0,1,5.51-1.91,12.67,12.67,0,0,1,8.17,1.35c4,2.3,3.81,5.86-.63,8.42a18.32,18.32,0,0,1-6.35,2.22L38.83,83.2a17,17,0,0,0,5.5-1.87c2.61-1.51,3.14-3.78.41-5.36s-6.32-1.58-10.41.78a23.8,23.8,0,0,0-2.61,1.77l-8.49-6.43L33,66.44Z"/><path class="cls-3" d="M65.93,71l-5.56-3.21-9.5,5.48-1.82-1-3.93-12.8,3-1.73,12.71,7.34,2.86-1.65,2.17,1.25L63,66.31l5.56,3.22ZM58.2,66.57l-6.83-3.94c-1.07-.62-2.1-1.26-3.11-1.91l-.09.05c.56,1.06.94,1.86,1.32,2.73l1.95,6.9.06,0Z"/><polygon class="cls-3" points="134.44 127.99 134.38 128.02 132.77 131.13 130.17 130.24 132.21 126.34 134.53 125 154.67 136.63 152.03 138.15 134.44 127.99"/><path class="cls-3" d="M159.53,130.21a17.57,17.57,0,0,0,5.73-1.85c3.5-2,2.35-3.93.65-4.88-2.85-1.61-6.6-.84-9.23.68l-1.52.88-2-1.18,1.52-.88c2-1.14,3.47-3.18,1.08-4.56a6.55,6.55,0,0,0-6.57.28,5.75,5.75,0,0,0-2.69,3.1l-2.7-.73a7.81,7.81,0,0,1,3.72-3.94c4-2.29,8.12-2,10.56-.55,2.08,1.19,2.6,2.93,1,4.88l.07,0a11.71,11.71,0,0,1,9.66.39c3.22,1.86,3.53,4.94-1.3,7.72a19,19,0,0,1-6.6,2.24Z"/><polygon class="cls-3" points="166.22 109.64 166.16 109.67 164.55 112.79 161.94 111.89 163.99 107.99 166.31 106.65 186.45 118.28 183.81 119.8 166.22 109.64"/><path class="cls-3" d="M192.39,113c-1.14-.66-1.17-1.57-.09-2.2a3.94,3.94,0,0,1,3.78.08c1.11.64,1.24,1.53.09,2.19a4,4,0,0,1-3.78-.07"/><path class="cls-3" d="M200.2,110.34l-1.67-1,.06-2.43c.24-5.8,0-8.64-3-10.41a7.7,7.7,0,0,0-7.93,0,4.87,4.87,0,0,0-2.57,3.46l-2.79-.61c.22-1.49,1.33-3.13,3.66-4.47a12.28,12.28,0,0,1,12-.18c3.71,2.14,4,5.44,3.87,10.25l-.13,1.79.07,0,9-5.22,2.26,1.3Z"/><path class="cls-3" d="M215.75,99.14a13.61,13.61,0,0,0,2.1-1.32,5,5,0,0,0,2.26-3.56c.13-1.47-.68-3-2.69-4.63l-.09.05c.24,1.43-.56,2.83-2.57,4a12.76,12.76,0,0,1-12.12-.13c-3.81-2.2-4.39-5.72-.28-8.1s10-1.91,15.15,1.06c4.43,2.55,6,5.2,6,7.45,0,1.77-1.24,3.55-3.16,4.94a16.05,16.05,0,0,1-2.35,1.54Zm-10.6-7.26a8.42,8.42,0,0,0,8.15.23c1.83-1,2.35-2.39,1.86-3.5a1.53,1.53,0,0,0-.75-.72c-3.43-2-7.34-2.77-10.19-1.13-2.32,1.35-1.92,3.47.93,5.12"/><path class="cls-3" d="M229.5,89.81A17.57,17.57,0,0,0,235.23,88c3.5-2,2.35-3.93.65-4.88-2.85-1.61-6.6-.84-9.23.68l-1.52.88-2-1.18,1.51-.88c2-1.14,3.47-3.18,1.09-4.56a6.53,6.53,0,0,0-6.57.29,5.69,5.69,0,0,0-2.69,3.09l-2.7-.73a7.81,7.81,0,0,1,3.72-3.94c4-2.29,8.11-2,10.56-.55,2.08,1.2,2.6,2.93,1,4.88l.07,0a11.71,11.71,0,0,1,9.66.39c3.22,1.86,3.53,4.94-1.3,7.72a19,19,0,0,1-6.6,2.24Z"/></g></g><polygon class="cls-4" points="0 73.06 0 108.47 152.22 196.37 152.01 160.84 0 73.06"/><polygon class="cls-5" points="152.22 196.37 278.56 123.42 278.56 87.77 152.01 160.84 152.22 196.37"/></svg>