<svg id="Layer_1" data-name="Layer 1" xmlns="http://www.w3.org/2000/svg" viewBox="0 0 265.55 319"><defs><style>.cls-1{fill:#f0f;}</style></defs><rect x="4" y="4" width="257.55" height="311"/><path class="cls-1" d="M257.55,8V311H8V8H257.55m8-8H0V319H265.55V0Z"/><path class="cls-1" d="M119.86,200.7l-13-22.5c-5.29-8.6-8.61-14.19-11.78-20.08h-.3c-2.87,5.89-5.74,11.33-11,20.24L71.54,200.7H56.44l31.11-51.49L57.65,98.93H72.9l13.44,23.86C90.12,129.43,93,134.56,95.7,140h.46c2.86-6,5.43-10.72,9.21-17.21l13.89-23.86h15.1l-31,49.53,31.71,52.24Z"/><path class="cls-1" d="M155.65,166.58c.3,18,11.78,25.37,25.07,25.37,9.51,0,15.25-1.67,20.23-3.78l2.27,9.51c-4.68,2.12-12.69,4.53-24.32,4.53-22.49,0-35.93-14.79-35.93-36.84S156,126,177.24,126c23.86,0,30.2,21,30.2,34.43a50.58,50.58,0,0,1-.45,6.19Zm39-9.52c.15-8.45-3.47-21.59-18.42-21.59-13.44,0-19.33,12.38-20.39,21.59Z"/><path class="cls-1" d="M46.67,27.48H30.31l-1.65,11a23,23,0,0,1,3.49-.27,18.17,18.17,0,0,1,9.24,2.31,12.23,12.23,0,0,1,6.14,11c0,8.38-6.67,14.65-16,14.65a21,21,0,0,1-10.69-2.64l1.45-4.42a19.28,19.28,0,0,0,9.17,2.37c5.48,0,10.17-3.56,10.17-9.3-.07-5.55-3.77-9.51-12.34-9.51a45.63,45.63,0,0,0-5.94.46l2.77-20.59H46.67Z"/><path class="cls-1" d="M72.87,65.49V53.81H52.94V50L72.08,22.59h6.27V49.26h6v4.55h-6V65.49Zm0-16.23V34.94c0-2.25.07-4.49.2-6.74h-.2c-1.32,2.51-2.37,4.36-3.56,6.34L58.82,49.12v.14Z"/><path class="cls-1" d="M41.26,240.87h-.13l-7.35,4-1.1-4.35,9.23-4.94h4.87v42.25H41.26Z"/><path class="cls-1" d="M63.55,271.22a19.15,19.15,0,0,0,9.36,2.67c7.35,0,9.62-4.68,9.56-8.19-.07-5.92-5.4-8.45-10.92-8.45H68.36V253h3.19c4.16,0,9.42-2.15,9.42-7.15,0-3.38-2.14-6.37-7.41-6.37a15.52,15.52,0,0,0-8.45,2.79l-1.49-4.16a20.13,20.13,0,0,1,11.05-3.25c8.32,0,12.09,4.94,12.09,10.08,0,4.35-2.6,8.06-7.8,9.94V255c5.2,1,9.42,4.94,9.42,10.86,0,6.76-5.26,12.67-15.4,12.67a21.43,21.43,0,0,1-11-2.86Z"/><path class="cls-1" d="M108,240.87h-.13l-7.35,4-1.1-4.35,9.22-4.94h4.88v42.25H108Z"/><path class="cls-1" d="M129.33,274.41a3.84,3.84,0,0,1,3.9-4.1,4.1,4.1,0,1,1-3.9,4.1Z"/><path class="cls-1" d="M142.33,277.79v-3.51l4.48-4.36c10.79-10.27,15.67-15.73,15.73-22.1,0-4.29-2.08-8.25-8.38-8.25a14.4,14.4,0,0,0-9,3.57l-1.82-4a18.52,18.52,0,0,1,12-4.29c9.1,0,12.93,6.24,12.93,12.29,0,7.8-5.65,14.1-14.56,22.68l-3.38,3.12V273h19v4.75Z"/><path class="cls-1" d="M179,273.76a23.5,23.5,0,0,0,4.61-.2,15.9,15.9,0,0,0,8.84-4.09c2.8-2.54,4.81-6.24,5.59-11.25h-.19a12.4,12.4,0,0,1-10,4.55c-7.6,0-12.48-5.72-12.48-12.93,0-8,5.79-15,14.43-15s14,7,14,17.81c0,9.3-3.12,15.8-7.28,19.83a21.16,21.16,0,0,1-12.29,5.65,26.67,26.67,0,0,1-5.26.33Zm2.08-24.31c0,5.26,3.18,9,8.12,9a9.45,9.45,0,0,0,8.32-4.42,3.73,3.73,0,0,0,.52-2.08c0-7.22-2.66-12.74-8.64-12.74C184.51,239.18,181.07,243.47,181.07,249.45Z"/><path class="cls-1" d="M210.38,271.22a19.11,19.11,0,0,0,9.36,2.67c7.35,0,9.62-4.68,9.56-8.19-.07-5.92-5.4-8.45-10.92-8.45h-3.19V253h3.19c4.16,0,9.42-2.15,9.42-7.15,0-3.38-2.14-6.37-7.41-6.37a15.52,15.52,0,0,0-8.45,2.79l-1.49-4.16a20.13,20.13,0,0,1,11.05-3.25c8.32,0,12.09,4.94,12.09,10.08,0,4.35-2.6,8.06-7.8,9.94V255c5.2,1,9.42,4.94,9.42,10.86,0,6.76-5.26,12.67-15.4,12.67a21.43,21.43,0,0,1-11-2.86Z"/></svg>